<svg id="OBJECTS" xmlns="http://www.w3.org/2000/svg" viewBox="0 0 434 313.97"><defs><style>.cls-1{font-size:13px;font-family:Poppins-Italic, Poppins;font-style:italic;}.cls-1,.cls-2{fill:#173e26;}.cls-3{fill:#eceff1;}.cls-4{fill:#d4e0ff;opacity:0.5;}.cls-5{fill:#516092;}.cls-6{fill:#a5ceb3;}.cls-7{fill:#fff;}.cls-8{fill:#b0d8ff;}.cls-9{fill:#e3ebff;}</style></defs><text class="cls-1" transform="translate(125.61 279.9)">PAGE UNDER CONSTRUCTION</text><text class="cls-1" transform="translate(168.05 306.53)">COMING SOON</text><path class="cls-2" d="M365.49,352H342.71a1.36,1.36,0,1,0,0,2.71h22.78a1.36,1.36,0,1,0,0-2.71Z" transform="translate(-33 -70.67)"/><path class="cls-2" d="M356,332.65a.76.76,0,0,0-.7-.49h-2.61a.75.75,0,0,0-.7.5l-7.35,21h19Z" transform="translate(-33 -70.67)"/><polygon class="cls-3" points="317.58 265.88 316.42 269.2 325.58 269.2 324.37 265.88 317.58 265.88"/><polygon class="cls-3" points="314.62 274.34 313.46 277.66 328.66 277.66 327.45 274.34 314.62 274.34"/><path class="cls-2" d="M157.29,352H134.51a1.36,1.36,0,1,0,0,2.71h22.78a1.36,1.36,0,1,0,0-2.71Z" transform="translate(-33 -70.67)"/><path class="cls-2" d="M147.75,332.65a.76.76,0,0,0-.7-.49h-2.61a.75.75,0,0,0-.7.5l-7.35,21h19Z" transform="translate(-33 -70.67)"/><polygon class="cls-3" points="109.38 265.88 108.22 269.2 117.38 269.2 116.17 265.88 109.38 265.88"/><polygon class="cls-3" points="106.42 274.34 105.26 277.66 120.46 277.66 119.25 274.34 106.42 274.34"/><polygon class="cls-4" points="125.5 129.93 70.91 129.93 70.91 224.66 125.5 224.66 140.43 224.66 204.62 224.66 204.62 59.47 125.5 59.47 125.5 129.93"/><polygon class="cls-4" points="294.62 135.67 294.62 0 215.5 0 215.5 224.66 291.5 224.66 294.62 224.66 352.7 224.66 352.7 135.67 294.62 135.67"/><rect class="cls-5" y="221.66" width="434" height="2"/><rect class="cls-6" x="95.09" y="82.66" width="190.72" height="149.89"/><rect class="cls-7" x="95.09" y="99.64" width="190.72" height="132.91"/><circle class="cls-7" cx="101.92" cy="90.83" r="2.78"/><path class="cls-7" d="M149.54,161.5a2.79,2.79,0,1,1-2.78-2.78A2.78,2.78,0,0,1,149.54,161.5Z" transform="translate(-33 -70.67)"/><path class="cls-7" d="M161.37,161.5a2.79,2.79,0,1,1-2.78-2.78A2.78,2.78,0,0,1,161.37,161.5Z" transform="translate(-33 -70.67)"/><path class="cls-7" d="M253.2,166.51H174.7a4.75,4.75,0,0,1-4.75-4.75h0A4.76,4.76,0,0,1,174.7,157h78.5a4.76,4.76,0,0,1,4.75,4.76h0A4.75,4.75,0,0,1,253.2,166.51Z" transform="translate(-33 -70.67)"/><path class="cls-7" d="M307.19,166.51H270a4.75,4.75,0,0,1-4.75-4.75h0A4.76,4.76,0,0,1,270,157h37.16a4.75,4.75,0,0,1,4.75,4.76h0A4.75,4.75,0,0,1,307.19,166.51Z" transform="translate(-33 -70.67)"/><rect class="cls-6" x="110.31" y="158.86" width="67.85" height="38.29"/><rect class="cls-6" x="110.31" y="111.86" width="67.85" height="38.29"/><rect class="cls-6" x="110.9" y="206.83" width="66.67" height="3"/><rect class="cls-6" x="110.9" y="216.83" width="66.67" height="3"/><rect class="cls-6" x="201.62" y="206.83" width="66.67" height="3"/><rect class="cls-6" x="201.62" y="216.83" width="66.67" height="3"/><path class="cls-2" d="M319.81,304.23H127.09V152.34H319.81Zm-190.72-2H317.81V154.34H129.09Z" transform="translate(-33 -70.67)"/><path class="cls-2" d="M365.51,281.67H345.94V117h19.57Zm-17.57-2h15.57V119H347.94Z" transform="translate(-33 -70.67)"/><rect class="cls-6" x="310.26" y="201.47" width="24.92" height="17.86"/><path class="cls-2" d="M364.61,262.67H347.28a1,1,0,0,1-.73-1.68l16.66-18,1.47,1.36-15.11,16.32h15Z" transform="translate(-33 -70.67)"/><path class="cls-2" d="M364.61,244.64H347.28a1,1,0,0,1-.92-.6,1,1,0,0,1,.19-1.08l16.66-18,1.47,1.36-15.11,16.32h15Z" transform="translate(-33 -70.67)"/><path class="cls-2" d="M364.61,226.6H347.28a1,1,0,0,1-.92-.6,1,1,0,0,1,.19-1.08l16.66-18,1.47,1.36L349.57,224.6h15Z" transform="translate(-33 -70.67)"/><path class="cls-2" d="M364.61,208.57H347.28a1,1,0,0,1-.73-1.68l16.66-18,1.47,1.36-15.11,16.32h15Z" transform="translate(-33 -70.67)"/><path class="cls-2" d="M364.61,190.54H347.28a1,1,0,0,1-.92-.6,1,1,0,0,1,.19-1.08l16.66-18,1.47,1.35-15.11,16.33h15Z" transform="translate(-33 -70.67)"/><path class="cls-2" d="M364.61,172.5H347.28a1,1,0,0,1-.73-1.68l16.66-18,1.47,1.36L349.57,170.5h15Z" transform="translate(-33 -70.67)"/><path class="cls-2" d="M364.61,154.47H347.28a1,1,0,0,1-.92-.6,1,1,0,0,1,.19-1.08l16.66-18,1.47,1.36-15.11,16.32h15Z" transform="translate(-33 -70.67)"/><path class="cls-5" d="M364.61,136.43H347.28a1,1,0,0,1-.92-.6,1,1,0,0,1,.19-1.08l16.66-18,1.47,1.36-15.11,16.32h15Z" transform="translate(-33 -70.67)"/><rect class="cls-2" x="300.76" y="39.38" width="31.72" height="26.74"/><rect class="cls-2" x="348.42" y="39.38" width="31.72" height="15.36"/><path class="cls-2" d="M412.61,112H256a1,1,0,0,1,0-2H412.61a1,1,0,0,1,0,2Z" transform="translate(-33 -70.67)"/><rect class="cls-5" x="230.23" y="45" width="1" height="65"/><path class="cls-8" d="M356.61,110.34" transform="translate(-33 -70.67)"/><rect class="cls-2" x="301.76" y="216.14" width="41.92" height="7.86"/><path class="cls-2" d="M349.73,111.74a.52.52,0,0,1-.35-.14L341,103.24H264.44l-7.86,7.86a.5.5,0,0,1-.7,0,.5.5,0,0,1,0-.71l8.14-8.15h77.42l8.64,8.65a.5.5,0,0,1-.35.85Z" transform="translate(-33 -70.67)"/><path class="cls-2" d="M413.28,111.74a.48.48,0,0,1-.44-.27l-8.36-16H384.2L376.34,111a.5.5,0,0,1-.67.22.5.5,0,0,1-.22-.67l8.14-16h21.49L413.72,111a.5.5,0,0,1-.21.68A.59.59,0,0,1,413.28,111.74Z" transform="translate(-33 -70.67)"/><path class="cls-6" d="M267.39,115.67a3.67,3.67,0,1,1-3.66-3.67A3.66,3.66,0,0,1,267.39,115.67Z" transform="translate(-33 -70.67)"/><rect class="cls-6" x="220.93" y="183.13" width="84.09" height="43.33" transform="translate(-50.73 -45.6) rotate(-5.28)"/><path class="cls-2" d="M285.4,103.24a.5.5,0,0,1-.14-1l74-22.58a.57.57,0,0,1,.34,0l35.09,14.81a.5.5,0,1,1-.39.92L359.41,80.69l-73.86,22.52A.4.4,0,0,1,285.4,103.24Z" transform="translate(-33 -70.67)"/><path class="cls-2" d="M347.79,111.81a.92.92,0,0,1-.36-.07,1,1,0,0,1-.57-1.29l11.65-30.67a1,1,0,0,1,1.92.16l6,29.91a1,1,0,0,1-2,.4l-5.34-26.52-10.43,27.43A1,1,0,0,1,347.79,111.81Z" transform="translate(-33 -70.67)"/><path class="cls-6" d="M361.46,80.13a2,2,0,1,1-2-2A2,2,0,0,1,361.46,80.13Z" transform="translate(-33 -70.67)"/><path class="cls-2" d="M274.86,111.84a.51.51,0,0,1-.31-.11l-9.82-7.94v7.42a.5.5,0,0,1-1,0v-8.47a.5.5,0,0,1,.28-.45.51.51,0,0,1,.53.06l10.64,8.6a.49.49,0,0,1,.07.7A.51.51,0,0,1,274.86,111.84Z" transform="translate(-33 -70.67)"/><path class="cls-2" d="M284.36,111.84a.56.56,0,0,1-.32-.11l-9.81-7.94v7.42a.5.5,0,0,1-.5.5.5.5,0,0,1-.5-.5v-8.47a.5.5,0,0,1,.28-.45.51.51,0,0,1,.53.06l10.63,8.6a.5.5,0,0,1,.08.7A.52.52,0,0,1,284.36,111.84Z" transform="translate(-33 -70.67)"/><path class="cls-2" d="M293.85,111.84a.51.51,0,0,1-.31-.11l-9.82-7.94v7.42a.5.5,0,0,1-1,0v-8.47a.49.49,0,0,1,.29-.45.51.51,0,0,1,.53.06l10.63,8.6a.5.5,0,0,1-.32.89Z" transform="translate(-33 -70.67)"/><path class="cls-2" d="M303.35,111.84a.51.51,0,0,1-.31-.11l-9.82-7.94v7.42a.5.5,0,0,1-.5.5.5.5,0,0,1-.5-.5v-8.47a.5.5,0,0,1,.28-.45.51.51,0,0,1,.53.06l10.63,8.6a.5.5,0,0,1,.08.7A.51.51,0,0,1,303.35,111.84Z" transform="translate(-33 -70.67)"/><path class="cls-2" d="M312.85,111.84a.52.52,0,0,1-.32-.11l-9.82-7.94v7.42a.5.5,0,0,1-.5.5.5.5,0,0,1-.5-.5v-8.47a.49.49,0,0,1,.29-.45.51.51,0,0,1,.53.06l10.63,8.6a.5.5,0,0,1-.31.89Z" transform="translate(-33 -70.67)"/><path class="cls-2" d="M322.34,111.84a.51.51,0,0,1-.31-.11l-9.82-7.94v7.42a.5.5,0,0,1-.5.5.5.5,0,0,1-.5-.5v-8.47a.5.5,0,0,1,.28-.45.51.51,0,0,1,.53.06l10.64,8.6a.5.5,0,0,1-.32.89Z" transform="translate(-33 -70.67)"/><path class="cls-2" d="M331.84,111.84a.54.54,0,0,1-.32-.11l-9.82-7.94v7.42a.5.5,0,0,1-.5.5.5.5,0,0,1-.5-.5v-8.47a.49.49,0,0,1,.29-.45.51.51,0,0,1,.53.06l10.63,8.6a.5.5,0,0,1,.08.7A.52.52,0,0,1,331.84,111.84Z" transform="translate(-33 -70.67)"/><path class="cls-2" d="M341.33,111.84a.51.51,0,0,1-.31-.11l-9.82-7.94v7.42a.5.5,0,0,1-.5.5.5.5,0,0,1-.5-.5v-8.47a.5.5,0,0,1,.28-.45.51.51,0,0,1,.53.06l10.64,8.6a.5.5,0,0,1-.32.89Z" transform="translate(-33 -70.67)"/><path class="cls-2" d="M397.47,111.84a.5.5,0,0,1-.39-.18l-12.75-15v14.6a.5.5,0,0,1-1,0v-16a.5.5,0,0,1,.33-.47.48.48,0,0,1,.55.14L397.85,111a.51.51,0,0,1-.06.71A.49.49,0,0,1,397.47,111.84Z" transform="translate(-33 -70.67)"/><path class="cls-2" d="M407.27,111.84a.48.48,0,0,1-.41-.23l-9.72-14.7v14.3a.5.5,0,0,1-1,0v-16a.49.49,0,0,1,.36-.48.51.51,0,0,1,.56.2l10.63,16.09a.51.51,0,0,1-.14.7A.54.54,0,0,1,407.27,111.84Z" transform="translate(-33 -70.67)"/><path class="cls-2" d="M266.87,182a3.15,3.15,0,1,1-3.14-3.14A3.15,3.15,0,0,1,266.87,182Z" transform="translate(-33 -70.67)"/><rect class="cls-5" x="60.12" y="174.16" width="2" height="48"/><rect class="cls-5" x="22.12" y="174.16" width="2" height="48"/><rect class="cls-9" x="17.12" y="178.66" width="50.22" height="18.5"/><polygon class="cls-2" points="67.33 197.16 67.33 179.66 58.1 197.16 67.33 197.16"/><polygon class="cls-2" points="35.6 197.16 46.34 197.16 56.1 178.66 45.36 178.66 35.6 197.16"/><polygon class="cls-2" points="22.86 178.66 17.12 189.55 17.12 197.16 23.84 197.16 33.6 178.66 22.86 178.66"/><rect class="cls-5" x="14.62" y="208.17" width="55" height="2"/><rect class="cls-5" x="408.11" y="174.16" width="2" height="48"/><rect class="cls-5" x="370.11" y="174.16" width="2" height="48"/><rect class="cls-9" x="365.11" y="178.66" width="50.22" height="18.5"/><polygon class="cls-2" points="415.33 197.16 415.33 179.66 406.1 197.16 415.33 197.16"/><polygon class="cls-2" points="383.6 197.16 394.34 197.16 404.1 178.66 393.36 178.66 383.6 197.16"/><polygon class="cls-2" points="370.86 178.66 365.11 189.55 365.11 197.16 371.84 197.16 381.6 178.66 370.86 178.66"/><rect class="cls-5" x="362.61" y="208.17" width="55" height="2"/><path class="cls-2" d="M124.5,306.67H101.72a1.36,1.36,0,1,0,0,2.71H124.5a1.36,1.36,0,0,0,0-2.71Z" transform="translate(-33 -70.67)"/><path class="cls-2" d="M115,287.3a.73.73,0,0,0-.69-.49h-2.61a.73.73,0,0,0-.7.5l-7.35,21h19Z" transform="translate(-33 -70.67)"/><polygon class="cls-3" points="76.59 220.53 75.43 223.85 84.58 223.85 83.38 220.53 76.59 220.53"/><polygon class="cls-3" points="73.63 228.99 72.47 232.31 87.67 232.31 86.46 228.99 73.63 228.99"/><path class="cls-4" d="M121.09,129.62a7.72,7.72,0,0,0-4.47,1.42v-2.2a11.5,11.5,0,0,0-23,0v4.34a5.81,5.81,0,0,0-9.81,4.22h45.06A7.78,7.78,0,0,0,121.09,129.62Z" transform="translate(-33 -70.67)"/><path class="cls-4" d="M214,98.28a5.6,5.6,0,0,0-3.26,1V97.71a8.37,8.37,0,0,0-16.74,0v3.16a4.23,4.23,0,0,0-7.14,3.07h32.81A5.66,5.66,0,0,0,214,98.28Z" transform="translate(-33 -70.67)"/></svg>